<?xml version="1.0" encoding="utf-8"?>
<!-- Generator: Adobe Illustrator 23.0.6, SVG Export Plug-In . SVG Version: 6.00 Build 0)  -->
<svg version="1.1" id="katman_1" xmlns="http://www.w3.org/2000/svg" xmlns:xlink="http://www.w3.org/1999/xlink" x="0px" y="0px"
	 viewBox="0 0 350 77" style="enable-background:new 0 0 350 77;" xml:space="preserve">
<style type="text/css">
	.st0{fill:#C6D0DA;}
	.st1{fill:url(#SVGID_1_);}
</style>
<path class="st0" d="M60.5,24L60.5,24c-3.4,0-6.2,3.4-4.9,6.8l12.8,39.3c0.9,2.3,2.8,3.4,4.9,3.4l0,0c3.4,0,6.2-3.4,4.9-6.8
	L65.5,27.4C64.6,25.5,62.9,24,60.5,24z"/>
<path class="st0" d="M80.2,42.4L80.2,42.4c3.4,0,6.2,3.4,4.9,6.8l-6.8,20.9c-0.9,2.3-2.8,3.4-4.9,3.4l0,0c-3.4,0-6.2-3.4-4.9-6.8
	l6.8-20.9C76.1,43.6,78.1,42.4,80.2,42.4z"/>
<path class="st0" d="M33,24L33,24c-3.4,0-6.2,3.4-4.9,6.8L33,45.1c0.9,2.1,2.6,3.4,4.9,3.4l0,0c3.4,0,6.2-3.4,4.9-6.8l-4.9-14.3
	C37.3,25.5,35.6,24,33,24z"/>
<path class="st0" d="M60.5,24L60.5,24c3.4,0,6.2,3.4,4.9,6.8L52.6,70.1c-0.9,2.3-2.6,3.4-4.9,3.4l0,0c-3.4,0-6.2-3.4-4.9-6.8
	l12.8-39.3C56.3,25.5,58.2,24,60.5,24z"/>
<g>
	<path class="st0" d="M115.9,65.4c0.4,0.6,0.9,1.5,0.9,2.6c0,0.6-0.2,1.3-0.6,1.9c-0.4,0.6-1.1,1.1-1.7,1.5c-1.3,0.6-3,1.3-4.5,1.7
		c-1.9,0.4-3.4,0.6-4.9,0.6c-3.2,0-5.8-0.6-8.3-1.9c-2.3-1.3-4.1-3-5.3-5.1c-1.3-2.3-1.9-4.9-1.9-8.1c0-3,0.6-5.6,1.9-7.9
		c1.3-2.3,3-4.1,4.9-5.3c1.9-1.3,4.5-1.9,7.5-1.9c2.8,0,4.9,0.6,6.8,1.7c2.1,1.3,3.4,3,4.5,4.9c1.1,1.9,1.7,4.5,1.7,7.5
		c0,0.9-0.2,1.5-0.6,2.1c-0.4,0.4-1.1,0.6-1.7,0.6H97.7c0.2,2.3,1.1,3.8,2.1,4.9c1.3,1.1,2.8,1.7,4.9,1.7c1.3,0,2.1-0.2,3.2-0.4
		c0.9-0.2,1.9-0.6,3.2-1.1c0.6-0.2,1.1-0.4,1.7-0.6c0.4-0.2,1.1-0.2,1.5-0.2C114.8,64.4,115.4,64.8,115.9,65.4z M99.6,51.1
		c-1.1,1.1-1.7,2.8-1.9,4.7H109c-0.2-2.1-0.6-3.6-1.7-4.7c-0.9-1.1-2.3-1.7-3.8-1.7C102,49.6,100.7,50.1,99.6,51.1z"/>
	<path class="st0" d="M146.8,45.4c1.9,1.3,3.4,3,4.5,5.1c1.1,2.3,1.7,4.9,1.7,7.9s-0.6,5.6-1.7,7.9c-1.1,2.3-2.8,4.1-4.5,5.3
		c-1.9,1.3-4.1,1.9-6.6,1.9c-2.1,0-3.6-0.4-5.3-1.3c-1.7-0.9-3-2.1-3.6-3.4v0.4c0,1.3-0.4,2.3-1.3,3.2c-0.9,0.9-1.9,1.3-3.2,1.3
		c-1.3,0-2.6-0.4-3.4-1.3c-0.9-0.9-1.3-1.9-1.3-3.2V35.5c0-1.3,0.4-2.3,1.3-3c0.9-0.9,1.9-1.1,3.4-1.1c1.3,0,2.3,0.4,3.2,1.1
		s1.3,1.7,1.3,3v12.8c0.9-1.5,2.1-2.6,3.6-3.4c1.7-0.9,3.4-1.3,5.3-1.3C142.5,43.4,144.9,44.1,146.8,45.4z M142.3,64.6
		c1.3-1.5,1.7-3.4,1.7-6.2c0-2.8-0.6-4.5-1.7-6c-1.3-1.5-2.8-2.1-4.7-2.1s-3.6,0.6-4.7,2.1c-1.3,1.5-1.7,3.4-1.7,6
		c0,2.8,0.6,4.7,1.7,6.2c1.3,1.5,2.8,2.1,4.7,2.1C139.8,66.9,141.1,66.1,142.3,64.6z"/>
	<path class="st0" d="M176.7,68c0.6,0.4,0.9,1.3,0.9,2.3c0,1.3-0.4,2.1-1.5,2.8c-0.9,0.6-2.3,0.9-3.8,0.6l-1.7-0.4
		c-6.8-0.6-10.5-4.1-10.5-10.7V50.9h-2.1c-1.3,0-2.3-0.2-3-0.9c-0.6-0.6-1.1-1.5-1.1-2.6c0-1.1,0.4-1.9,1.1-2.6
		c0.6-0.6,1.7-0.9,3-0.9h2.3v-4.5c0-1.3,0.4-2.3,1.3-3.2c0.9-0.9,1.9-1.1,3.4-1.1c1.5,0,2.6,0.4,3.4,1.1c0.9,0.9,1.3,1.9,1.3,3.2
		v4.5h4.1c2.8,0,3.8,1.1,3.8,3.4c0,1.1-0.4,1.9-1.1,2.6c-0.6,0.6-1.7,0.9-3.2,0.9h-4.1v12.2c0,1.3,0.2,2.1,0.9,2.8
		c0.6,0.6,1.5,1.1,2.6,1.1l1.7,0.2C175.2,67.1,176.1,67.3,176.7,68z"/>
	<path class="st0" d="M181.6,37.7c-0.9-0.9-1.5-1.9-1.5-3.4c0-1.5,0.4-2.6,1.5-3.4c0.9-0.9,2.1-1.3,3.6-1.3s2.8,0.4,3.6,1.3
		c0.9,0.9,1.5,1.9,1.5,3.4c0,1.5-0.4,2.6-1.5,3.4c-0.9,0.9-2.1,1.3-3.6,1.3S182.5,38.5,181.6,37.7z M182.1,72.5
		c-0.9-0.6-1.3-1.7-1.3-3.2V47.9c0-1.5,0.4-2.6,1.3-3.2c0.9-0.6,1.9-1.1,3.2-1.1s2.3,0.4,3.2,1.1c0.9,0.6,1.3,1.7,1.3,3.2v21.6
		c0,1.5-0.4,2.6-1.3,3.2s-1.9,1.1-3.2,1.1C184,73.5,182.9,73.1,182.1,72.5z"/>
	<path class="st0" d="M202.3,71.6c-2.3-1.3-3.8-3-5.1-5.1c-1.3-2.3-1.9-4.9-1.9-7.9c0-3,0.6-5.6,1.9-8.1c1.3-2.3,3.2-4.1,5.3-5.3
		c2.3-1.3,4.9-1.9,8.1-1.9c1.7,0,3.2,0.2,4.7,0.6c1.5,0.4,3.2,1.1,4.3,1.9s1.9,1.9,1.9,3.4c0,1.1-0.2,1.9-0.6,2.6
		c-0.4,0.6-1.1,1.1-1.9,1.1c-0.4,0-1.1,0-1.5-0.2s-1.1-0.4-1.9-0.9s-1.7-0.9-2.3-1.1c-0.6-0.2-1.5-0.4-2.3-0.4
		c-2.3,0-3.8,0.6-4.9,2.1c-1.3,1.5-1.7,3.4-1.7,6c0,2.8,0.6,4.7,1.7,6.2c1.3,1.5,3,2.1,4.9,2.1c0.9,0,1.5-0.2,2.3-0.4
		c0.6-0.2,1.5-0.6,2.3-1.1s1.3-0.6,1.9-0.9c0.4-0.2,0.9-0.2,1.5-0.2c0.9,0,1.5,0.4,1.9,1.1c0.4,0.6,0.9,1.5,0.9,2.6
		c0,1.5-0.6,2.6-1.9,3.4c-1.3,0.9-2.8,1.5-4.3,1.9c-1.7,0.4-3.4,0.6-5.1,0.6C207,73.5,204.3,72.9,202.3,71.6z"/>
	<path class="st0" d="M248.2,46.6c2.1,2.1,3.2,5.1,3.2,9.6v13.2c0,1.3-0.4,2.3-1.1,3.2c-0.9,0.9-1.9,1.1-3.2,1.1
		c-1.3,0-2.3-0.4-3.2-1.3c-0.9-0.9-1.3-1.7-1.3-3v-0.4c-0.6,1.5-1.7,2.8-3,3.4c-1.5,0.9-3,1.3-4.7,1.3c-1.9,0-3.6-0.4-5.3-1.3
		s-3-1.9-3.6-3.4c-0.9-1.5-1.5-3-1.5-4.7c0-2.1,0.6-3.6,1.7-4.9c1.1-1.3,3-2.1,5.1-2.8c2.6-0.6,5.6-0.9,10-0.9h1.5v-1.1
		c0-1.7-0.4-3-1.1-3.4c-0.9-0.9-1.9-1.1-3.6-1.1c-1.7,0-4.1,0.6-7.3,1.9c-0.9,0.4-1.7,0.6-2.3,0.6c-0.9,0-1.5-0.2-2.1-0.9
		c-0.4-0.6-0.9-1.5-0.9-2.6c0-0.9,0.2-1.5,0.6-1.9c0.4-0.4,0.9-1.1,1.7-1.5c1.5-0.9,3.2-1.3,4.9-1.9c2.1-0.4,3.8-0.6,5.8-0.6
		C243.1,43.4,246.1,44.5,248.2,46.6z M241.2,65.6c1.1-1.3,1.7-2.8,1.7-4.5v-1.1h-1.1c-3.2,0-5.3,0.2-6.6,0.9
		c-1.3,0.4-1.9,1.5-1.9,2.8c0,1.1,0.4,2.1,1.1,2.8c0.9,0.6,1.7,1.1,2.8,1.1C238.6,67.6,240.1,66.9,241.2,65.6z"/>
	<path class="st0" d="M278.1,44.3c0.6,0.6,1.1,1.5,1.1,2.8c0,1.3-0.4,2.3-1.1,3c-0.6,0.6-1.7,1.1-3.4,1.3l-1.9,0.2
		c-2.1,0.2-3.6,1.1-4.7,2.1c-1.1,1.3-1.5,2.8-1.5,4.5v11.1c0,1.5-0.4,2.6-1.3,3.2c-0.9,0.6-1.9,1.1-3.2,1.1s-2.3-0.4-3.4-1.1
		c-0.9-0.6-1.3-1.7-1.3-3.2V47.7c0-1.3,0.4-2.3,1.3-3.2c0.9-0.6,1.9-1.1,3.2-1.1c1.3,0,2.1,0.4,3,1.1c0.9,0.6,1.3,1.7,1.3,3v1.7
		c0.6-1.7,1.9-3,3.4-3.8c1.5-0.9,3-1.5,4.7-1.5h0.9C276.4,43.4,277.3,43.6,278.1,44.3z"/>
	<path class="st0" d="M282.4,37.7c-0.9-0.9-1.5-1.9-1.5-3.4c0-1.5,0.4-2.6,1.5-3.4c0.9-0.9,2.1-1.3,3.6-1.3s2.8,0.4,3.6,1.3
		c0.9,0.9,1.5,1.9,1.5,3.4c0,1.5-0.4,2.6-1.5,3.4c-0.9,0.9-2.1,1.3-3.6,1.3S283.3,38.5,282.4,37.7z M282.8,72.5
		c-0.9-0.6-1.3-1.7-1.3-3.2V47.9c0-1.5,0.4-2.6,1.3-3.2c0.9-0.6,1.9-1.1,3.2-1.1s2.3,0.4,3.2,1.1c0.9,0.6,1.3,1.7,1.3,3.2v21.6
		c0,1.5-0.4,2.6-1.3,3.2c-0.9,0.6-1.9,1.1-3.2,1.1C284.8,73.5,283.7,73.1,282.8,72.5z"/>
</g>
<linearGradient id="SVGID_1_" gradientUnits="userSpaceOnUse" x1="289.9121" y1="80.0755" x2="313.4928" y2="80.0755" gradientTransform="matrix(0.9947 0.1033 -0.1033 0.9947 9.2443 -49.2687)">
	<stop  offset="0" style="stop-color:#FBEBB5"/>
	<stop  offset="0.4014" style="stop-color:#FFC400"/>
	<stop  offset="0.6449" style="stop-color:#FCBF00"/>
	<stop  offset="1" style="stop-color:#FF8900"/>
</linearGradient>
<path class="st1" d="M312.2,60.2c-0.5-0.7-1.3-1.1-2.4-1.2l-5-0.5l0.5-5c0.1-1.2-0.1-1.9-0.7-2.6c-0.6-0.6-1.4-1-2.4-1.1
	c-1-0.1-1.8,0.1-2.6,0.6c-0.7,0.5-1.1,1.3-1.2,2.4l-0.5,5l-5-0.5c-1.2-0.1-1.9,0.1-2.6,0.7c-0.6,0.6-1,1.4-1.1,2.4s0.1,1.8,0.6,2.6
	c0.5,0.7,1.3,1.1,2.4,1.2l5,0.5l-0.5,5c-0.1,1.2,0.1,1.9,0.7,2.6c0.6,0.6,1.4,1,2.4,1.1c1,0.1,1.8-0.1,2.6-0.6
	c0.7-0.5,1.1-1.3,1.2-2.4l0.5-5l5,0.5c1.2,0.1,1.9-0.1,2.6-0.7c0.6-0.6,1-1.4,1.1-2.4S312.7,60.9,312.2,60.2z"/>
</svg>
